<svg width="24" height="25" viewBox="0 0 24 25" fill="none" xmlns="http://www.w3.org/2000/svg">
<path d="M13.5 4C13.5 4.82843 12.8284 5.5 12 5.5C11.1716 5.5 10.5 4.82843 10.5 4C10.5 3.17157 11.1716 2.5 12 2.5C12.8284 2.5 13.5 3.17157 13.5 4Z" stroke="#141B34" stroke-width="1.5"/>
<path d="M16 18C16 17.1716 14.2091 16.5 12 16.5C9.79086 16.5 8 17.1716 8 18C8 18.8284 9.79086 19.5 12 19.5C13.6569 19.5 15 20.1716 15 21C15 21.8284 13.6569 22.5 12 22.5C10.7151 22.5 9.61891 22.0961 9.19145 21.5284" stroke="#141B34" stroke-width="1.5" stroke-linecap="round"/>
<path d="M12 5.5V16.5" stroke="#141B34" stroke-width="1.5" stroke-linecap="round"/>
<path d="M6.79608 12.449C4.78062 14.1542 2.83394 11.2419 2 9.22618C2.88295 9.22618 4.7205 8.6724 6.42898 6.72663C7.175 5.877 7.54801 5.45218 7.75824 5.50428C7.96847 5.55638 8.25712 6.19208 8.83442 7.4635C9.72693 9.42909 11.0673 10.4619 12 10.8376C9.6 14.705 7.53072 13.5233 6.79608 12.449ZM6.79608 12.449C7.09111 12.1994 7.38762 11.8509 7.68232 11.3861" stroke="#141B34" stroke-width="1.5" stroke-linecap="round" stroke-linejoin="round"/>
<path d="M17.2039 12.449C19.2194 14.1542 21.1661 11.2419 22 9.22618C21.1171 9.22618 19.2795 8.6724 17.571 6.72663C16.825 5.877 16.452 5.45218 16.2418 5.50428C16.0315 5.55638 15.7429 6.19208 15.1656 7.4635C14.2731 9.42909 12.9327 10.4619 12 10.8376C14.4 14.705 16.4693 13.5233 17.2039 12.449ZM17.2039 12.449C16.9089 12.1994 16.6124 11.8509 16.3177 11.3861" stroke="#141B34" stroke-width="1.5" stroke-linecap="round" stroke-linejoin="round"/>
</svg>
