<svg width="24" height="25" viewBox="0 0 24 25" fill="none" xmlns="http://www.w3.org/2000/svg">
<path d="M2.35139 13.7135C1.99837 11.4162 1.82186 10.2676 2.25617 9.24938C2.69047 8.23112 3.65403 7.53443 5.58114 6.14106L7.02099 5.1C9.41829 3.36667 10.6169 2.5 12 2.5C13.3831 2.5 14.5817 3.36667 16.979 5.1L18.4189 6.14106C20.346 7.53443 21.3095 8.23112 21.7438 9.24938C22.1781 10.2676 22.0016 11.4162 21.6486 13.7135L21.3476 15.6724C20.8471 18.9289 20.5969 20.5572 19.429 21.5286C18.2611 22.5 16.5537 22.5 13.1388 22.5H10.8612C7.44633 22.5 5.73891 22.5 4.571 21.5286C3.40309 20.5572 3.15287 18.9289 2.65243 15.6724L2.35139 13.7135Z" stroke="#141B34" stroke-width="1.5" stroke-linejoin="round"/>
<path d="M8.64185 9.94156C9.84859 9.21049 10.9018 9.5051 11.5345 9.97439C11.794 10.1668 11.9237 10.263 12 10.263C12.0763 10.263 12.206 10.1668 12.4655 9.97439C13.0982 9.5051 14.1514 9.21049 15.3582 9.94156C16.9419 10.901 17.3002 14.0663 13.6472 16.7368C12.9514 17.2454 12.6035 17.4997 12 17.4997C11.3965 17.4997 11.0486 17.2454 10.3528 16.7368C6.69977 14.0663 7.05813 10.901 8.64185 9.94156Z" stroke="#141B34" stroke-width="1.5" stroke-linecap="round"/>
</svg>
