<svg width="24" height="25" viewBox="0 0 24 25" fill="none" xmlns="http://www.w3.org/2000/svg">
<path d="M2.5 12.5C2.5 8.02166 2.5 5.78249 3.89124 4.39124C5.28249 3 7.52166 3 12 3C16.4783 3 18.7175 3 20.1088 4.39124C21.5 5.78249 21.5 8.02166 21.5 12.5C21.5 16.9783 21.5 19.2175 20.1088 20.6088C18.7175 22 16.4783 22 12 22C7.52166 22 5.28249 22 3.89124 20.6088C2.5 19.2175 2.5 16.9783 2.5 12.5Z" stroke="#141B34" stroke-width="1.5" stroke-linejoin="round"/>
<path d="M17 9.25C17.4142 9.25 17.75 8.91421 17.75 8.5C17.75 8.08579 17.4142 7.75 17 7.75L17 9.25ZM16 8.5L16 9.25L16 8.5ZM11.25 22C11.25 22.4142 11.5858 22.75 12 22.75C12.4142 22.75 12.75 22.4142 12.75 22H11.25ZM10 13.75C9.58579 13.75 9.25 14.0858 9.25 14.5C9.25 14.9142 9.58579 15.25 10 15.25V13.75ZM15 15.25C15.4142 15.25 15.75 14.9142 15.75 14.5C15.75 14.0858 15.4142 13.75 15 13.75V15.25ZM17 7.75L16 7.75L16 9.25L17 9.25L17 7.75ZM11.25 12.5V22H12.75V12.5H11.25ZM16 7.75C15.0784 7.75 14.3117 7.74841 13.7055 7.82991C13.0777 7.91432 12.5109 8.09999 12.0555 8.55546L13.1161 9.61612C13.2464 9.4858 13.4439 9.37858 13.9054 9.31654C14.3884 9.25159 15.036 9.25 16 9.25V7.75ZM12.75 12.5C12.75 11.536 12.7516 10.8884 12.8165 10.4054C12.8786 9.94393 12.9858 9.74643 13.1161 9.61612L12.0555 8.55546C11.6 9.01093 11.4143 9.57773 11.3299 10.2055C11.2484 10.8117 11.25 11.5784 11.25 12.5H12.75ZM10 15.25H15V13.75H10V15.25Z" fill="#141B34"/>
</svg>
