<svg width="24" height="25" viewBox="0 0 24 25" fill="none" xmlns="http://www.w3.org/2000/svg">
<path d="M19.4626 4.49352C16.7809 2.8486 14.4404 3.51148 13.0344 4.56738C12.4578 5.00033 12.1696 5.2168 12 5.2168C11.8304 5.2168 11.5422 5.00033 10.9656 4.56738C9.55962 3.51148 7.21909 2.8486 4.53744 4.49352C1.01807 6.6523 0.221719 13.7742 8.33953 19.7827C9.88572 20.9272 10.6588 21.4994 12 21.4994C13.3412 21.4994 14.1143 20.9272 15.6605 19.7827C23.7783 13.7742 22.9819 6.6523 19.4626 4.49352Z" stroke="#141B34" stroke-width="1.5" stroke-linecap="round"/>
<path d="M16 13.5H15C14.5447 13.5 14.0655 13.5352 13.6569 13.2214C13.5011 13.1017 13.3977 12.9363 13.191 12.6056L11.5 9.5L8.5 14.5L6.94338 12.3321C6.68722 12.0247 6.43747 11.713 6.09845 11.5897C5.85189 11.5 5.56792 11.5 5 11.5H3" stroke="#141B34" stroke-width="1.5" stroke-linecap="round" stroke-linejoin="round"/>
</svg>
