<svg width="24" height="25" viewBox="0 0 24 25" fill="none" xmlns="http://www.w3.org/2000/svg">
<path d="M2 6.49999L8.91302 10.417C11.4616 11.861 12.5384 11.861 15.087 10.417L22 6.49999" stroke="#141B34" stroke-width="1.5" stroke-linejoin="round"/>
<path d="M2.01577 13.9756C2.08114 17.0411 2.11383 18.5739 3.24496 19.7093C4.37608 20.8448 5.95033 20.8843 9.09883 20.9634C11.0393 21.0122 12.9607 21.0122 14.9012 20.9634C18.0497 20.8843 19.6239 20.8448 20.7551 19.7093C21.8862 18.5739 21.9189 17.0411 21.9842 13.9756C22.0053 12.9899 22.0053 12.0101 21.9842 11.0244C21.9189 7.95884 21.8862 6.42607 20.7551 5.29064C19.6239 4.15521 18.0497 4.11565 14.9012 4.03655C12.9607 3.98779 11.0393 3.98779 9.09882 4.03654C5.95033 4.11564 4.37608 4.15519 3.24495 5.29062C2.11382 6.42606 2.08114 7.95882 2.01576 11.0244C1.99474 12.01 1.99475 12.9899 2.01577 13.9756Z" stroke="#141B34" stroke-width="1.5" stroke-linejoin="round"/>
</svg>
