<svg width="24" height="25" viewBox="0 0 24 25" fill="none" xmlns="http://www.w3.org/2000/svg">
<path d="M17 13.7308C17 13.7308 16.0909 13.2693 15.1818 13.2693C13.8182 13.2693 12 15.1154 12 17.8846C12 20.6537 14.4896 22.5 17 22.5C19.5104 22.5 22 20.6537 22 17.8846C22 15.1154 20.1818 13.2693 18.8182 13.2693C17.9091 13.2693 17 13.7308 17 13.7308ZM17 13.7308C17 12.3462 17.9091 10.5 19.7273 10.5" stroke="#141B34" stroke-width="1.5" stroke-linecap="round" stroke-linejoin="round"/>
<path d="M10.655 5.5C11.5512 5.5 12.2778 4.82843 12.2778 4C12.2778 3.17157 11.5512 2.5 10.655 2.5H5.24561C4.34936 2.5 3.6228 3.17157 3.6228 4C3.6228 4.82843 4.34936 5.5 5.24561 5.5M11.1693 5.42311C12.1247 7.18943 12.9095 8.78337 13.3888 10.5C13.4279 10.6401 13.465 10.781 13.5 10.9229M10.428 22.5H6.32748C2.74721 22.5 2 21.8093 2 18.5V14.2771C2 10.8773 3.09757 8.38562 4.70467 5.41465" stroke="#141B34" stroke-width="1.5" stroke-linecap="round" stroke-linejoin="round"/>
</svg>
