<svg width="24" height="25" viewBox="0 0 24 25" fill="none" xmlns="http://www.w3.org/2000/svg">
<path d="M14.625 15.5C13.2648 14.0347 10.7498 13.9657 9.375 15.5M10.5445 11C10.5445 11.8284 11.1984 12.5 12.0049 12.5C12.8115 12.5 13.4654 11.8284 13.4654 11C13.4654 10.1716 12.8115 9.5 12.0049 9.5C11.1984 9.5 10.5445 10.1716 10.5445 11Z" stroke="#141B34" stroke-width="1.5" stroke-linecap="round"/>
<path d="M12 18.5C15.3137 18.5 18 15.8137 18 12.5C18 9.18629 15.3137 6.5 12 6.5M12 18.5C8.68629 18.5 6 15.8137 6 12.5C6 9.18629 8.68629 6.5 12 6.5M12 18.5V21.5M12 6.5V3.5M12 3.5C12.2761 3.5 12.5 3.27614 12.5 3C12.5 2.72386 12.2761 2.5 12 2.5C11.7239 2.5 11.5 2.72386 11.5 3C11.5 3.27614 11.7239 3.5 12 3.5ZM12 21.5C11.7239 21.5 11.5 21.7239 11.5 22C11.5 22.2761 11.7239 22.5 12 22.5C12.2761 22.5 12.5 22.2761 12.5 22C12.5 21.7239 12.2761 21.5 12 21.5ZM16.4803 16.9697L19.3088 19.7981M16.2697 8.21967L19.0981 5.39124M18.25 12.5H21.25M4.78033 5.21967L7.60876 8.0481M4.71967 19.7981L7.5481 16.9697M3.25 12.5H6.25M2.5 12C2.77614 12 3 12.2239 3 12.5C3 12.7761 2.77614 13 2.5 13C2.22386 13 2 12.7761 2 12.5C2 12.2239 2.22386 12 2.5 12ZM21.5 12C21.7761 12 22 12.2239 22 12.5C22 12.7761 21.7761 13 21.5 13C21.2239 13 21 12.7761 21 12.5C21 12.2239 21.2239 12 21.5 12ZM20 19.5C20.5523 19.5 21 19.9477 21 20.5C21 21.0523 20.5523 21.5 20 21.5C19.4477 21.5 19 21.0523 19 20.5C19 19.9477 19.4477 19.5 20 19.5ZM19 4.5C19 3.94772 19.4477 3.5 20 3.5C20.5523 3.5 21 3.94772 21 4.5C21 5.05228 20.5523 5.5 20 5.5C19.4477 5.5 19 5.05229 19 4.5ZM4 3.5C4.55228 3.5 5 3.94772 5 4.5C5 5.05228 4.55228 5.5 4 5.5C3.44772 5.5 3 5.05228 3 4.5C3 3.94772 3.44772 3.5 4 3.5ZM3 20.5C3 19.9477 3.44771 19.5 4 19.5C4.55228 19.5 5 19.9477 5 20.5C5 21.0523 4.55228 21.5 4 21.5C3.44772 21.5 3 21.0523 3 20.5Z" stroke="#141B34" stroke-width="1.5" stroke-linejoin="round"/>
</svg>
