<svg xmlns="http://www.w3.org/2000/svg" xmlns:xlink="http://www.w3.org/1999/xlink" version="1.1" id="Layer_1" x="0px" y="0px" viewBox="0.0 0.0 1000.0 1000.0" style="enable-background:new 0 0 1000 1000;" xml:space="preserve" width="316.22776601683796" height="316.22776601683796">
<style type="text/css">
	.st0{fill:#0B8341;}
	.st1{fill:#FFFFFF;}
	.st2{fill:#E01F26;}
	.st3{fill:#010101;}
	.st4{fill:none;}
	.st5{fill:#F8E700;}
</style>
<g>
	<path class="st0" d="M509.4,10.9h-18.8c-264.8,0-479.7,214.9-479.7,479.7v18.8c0,264.8,214.9,479.7,479.7,479.7h18.8   c264.8,0,479.7-214.9,479.7-479.7v-18.8C988.7,225.8,774.2,10.9,509.4,10.9z"/>
	<g>
		<g>
			<path class="st1" d="M277.7,775.8L267.5,786c0,0-16.8,17.2-20.4,21.2c-4.9-2.5-38.8-19.6-38.8-19.6s17.6,33.9,20,38.8     c-3.7,3.7-30.2,30.2-30.2,30.2s37.6-5.3,42.9-6.1c2.5,4.9,20,38.8,20,38.8s5.7-38,6.1-43.3c5.3-0.8,42.9-6.9,42.9-6.9     s-33.9-17.2-38.4-19.6C272.4,813.8,277.7,775.8,277.7,775.8z"/>
			<g>
				<path class="st1" d="M187.8,747.2l0.8-1.2c2.5-3.7,5.3-10.6-1.6-19.2l0,0l-30.6-42.9l0,0c-4.9-6.9-11-9-17.6-6.1      c0,0,0,0-1.2,0.4c-1.2,0.4-12.3,8.6-13.1,9.4c-0.8,0.8-1.6,1.6-1.6,1.6c-2.5,4.5-2,9.4,0.8,14.3l0.4,0.4l24.9,34.3l8.2-6.1      l-24.5-33.9l0,0c-1.2-1.6-1.2-2.9-0.8-3.7l11.4-8.2c1.2-0.4,2.5-0.4,5.3,2.9l0,0l30.6,43.3l0.4,0.4c2.9,3.3,2.5,5.3,1.2,6.5      l-35.1,29c-20.4-26.1-37.6-59.2-50.7-95.6l50.7-17.6l-3.3-9.4l-50.7,17.6c-10.2-30.2-18-62.1-22.5-94l14.3-3.3l14.3,64.1l0,0      c1.2,6.5,6.1,11.4,12.3,11.4l20.8-4.9l0.8-0.4c5.7-3.3,7.8-8.2,6.9-14.3l0,0l-13.9-65l-2-9.8l-31.5,6.5l-4.9-25.7l7.8-1.6      l2.5,12.7l9.8-2c0,0-1.6-7.8-2.9-13.9c-1.2-6.1-7.4-7.4-9.4-6.9c-2.5,0.4-11.8,2-11.8,2l-1.2,0.4c-4.1,2-5.7,6.1-4.9,10.6l0,0      l4.9,26.6l-13.5,2.9c-2.5-21.2-3.3-42.5-2.5-62.9l53.5,6.5l1.2-10.2l-54.3-6.9c0.4-4.1,0.4-7.8,0.8-11.8l-10.2-0.8      c-11,107.5,29,243.5,92.7,316.7l7.8-6.5c-1.6-2-3.3-4.1-5.3-6.1L187.8,747.2z M114.7,559.2l13.5,65l0,0c0,0.4,0,0.4,0,0.8      c0,0.8-0.4,1.6-2,2.5c-2,0.4-18,4.1-18,4.1s-0.8-1.6-1.2-3.3v-0.4l-14.3-64.1L114.7,559.2z"/>
				<path class="st1" d="M375.4,102c2.5-0.8,4.9-1.2,7.4-2l9,52.3l10.2-1.6l-9-53.1c4.9-1.2,10.2-2.5,15.1-3.7      c-1.2,3.3-1.2,6.9,0.4,10.2c2.5,6.9,9.8,11,18,10.6h0.8c20.4-3.3,29.4-1.2,31.5,2.5c0.4,6.1-1.2,11.8-15.5,13.1l0,0      c-5.7,0.8-18.8,2-21.7-4.9l-9.4,3.3c2,5.7,9,15.1,32.3,11.4l0,0c18-2,23.7-11,24.5-19.6h16.3V138h10.2V84.1      c7.4,0,14.3,0,21.7,0.4l-3.7,51.5l10.2,0.8l3.7-51.9c5.7,0.4,11.4,0.8,17.2,1.6l-3.3,39.2v1.2c0.8,6.5,5.7,11.4,13.1,13.5l0,0      l51.9,12.7l0,0c7.8,1.6,13.5-0.4,17.2-6.9l0.8-2l2-16.3v-1.6c-0.8-4.1-3.3-9.4-11-10.6l0,0l-40.5-9l-2,9.8l40.5,9h0.4      c2,0.4,2.9,0.8,2.9,2l-2,14.3c-0.8,1.2-2,2-5.7,1.2l0,0l-51.9-12.3c-4.1-1.2-5.3-3.3-5.7-4.9l3.3-38.4      c28.6,3.7,56.8,10.2,85.4,20l3.3-9.8c-1.6-0.4-3.3-0.8-4.5-1.6l1.2-8.6l0,0c1.2-5.7-2-11.4-8.2-13.9h-0.8l-24.9-6.5l-2.5,9.8      l24.5,6.5c1.2,0.4,2,1.2,1.6,2v0.4l-1.2,7.4c-33.5-10.2-67-16.3-100.5-18.4l0.4-6.1c0.8-4.1,2.5-4.9,4.9-4.9l48.2,4.9l1.2-10.2      L534.3,53h-0.4c-8.2,0-13.1,4.1-15.1,12.7v0.8l-0.4,6.9c-42.1-1.6-84.2,2.5-126.3,12.7l-0.8-4.5c0-4.1,2-5.3,4.1-5.7l47.4-6.5      l-1.2-10.2l-47.8,6.5h-0.4c-7.4,2-11.8,7.8-11.8,15.9v0.8l0.8,5.7c-2.9,0.8-5.7,1.6-8.6,2.5L375.4,102z M463.2,115.5      L463.2,115.5L463.2,115.5L463.2,115.5z M421.1,92.2l-0.8-0.8c21.2-4.1,42.9-6.1,64.1-6.9v25.7h-18.4c-5.7-7.4-19.2-9.4-40.9-5.7      c-3.7,0-6.9-1.2-7.8-4.1C416.2,97.9,417.9,94.7,421.1,92.2z"/>
				<path class="st1" d="M643.8,875.5l-3.3-9.8c-97.2,31.5-185.5,31.5-270.1,0l-3.7,9.4c4.1,1.6,8.2,2.9,12.3,4.1l-6.5,31.9v1.2      c0,10.2,9,12.7,11.8,13.5l0,0l46.2,11.8l0,0c10.2,2.5,14.3-2.5,16.3-6.5v-0.4l2.9-11v-1.2c0-5.3-4.1-9.8-9.8-11l0,0l-35.5-8.6      l-2.5,9.8l36,8.6h0.4c0.8,0,1.2,0.4,1.6,0.8l-2.5,9.4c-0.4,0.8-0.8,1.2-4.1,0.4l0,0l-46.2-11.8l0,0c-3.7-1.2-4.1-2-4.1-3.3      l6.1-30.2c26.1,8.2,52.7,13.1,79.7,15.5l-0.8,44.9h10.2l0.8-44.1c32.3,2,65-0.4,98.9-6.5l0.8,9l-57.6,7.4h-0.4l0,0l0,0      c-6.5,1.2-10.6,5.7-10.6,11.4l1.6,17.6l0.4,0.8c2,4.1,5.3,6.5,9.8,6.9l0,0c0.4,0,0.8,0,0.8,0c0.4,0,0.8,0,0.8,0l0,0l0,0h0.4      l62.9-6.5l4.9-0.8l-0.4-4.9l-2-23.3l22.1-1.6l0.4,6.1l-10.2,0.8l0.4,10.2l12.3-0.8l0,0c4.5,0,7.8-3.3,7.8-8.2v-0.4l-0.8-9.8l0,0      c0-3.7-2.5-8.2-8.6-8.2h-0.4l-24.1,1.6l-0.8-9.8c13.5-2.9,27.4-6.1,41.3-10.2l16.8,43.7l9.4-3.7l-16.3-42.9      C640.6,876.3,642.2,875.9,643.8,875.5z M523.3,935.6L523.3,935.6c-0.4,0-0.4,0-0.8,0h-0.4c0,0-0.4,0-0.4-0.4l0,0l-0.4-0.4l0,0      c0,0,0,0,0-0.4c0,0,0,0,0-0.4c-0.4-2.5-1.2-13.1-1.2-14.3l0,0c0-0.4,1.6-0.8,2.5-1.2l57.2-7.4l1.6,18.4L523.3,935.6z"/>
				<g>
					<path class="st1" d="M296.1,117.2l10.6-5.3l-4.9-8.6l-18.8,9.8l4.1,8.6l0,0l6.1,11.8c-23.7,13.1-42.9,25.7-60.1,38.8l0,0       c-4.1,2.9-5.7,6.5-5.7,11.4l0.8,2.9l6.5,10.2l1.6,1.6c5.7,3.7,11.8,2,15.5,0.4l1.2-0.8c11-8.6,22.1-15.5,32.7-20.8l-4.5-9       c-11.4,5.3-22.5,12.3-33.9,21.2c-2.5,1.2-4.1,1.2-4.9,0.8c0,0-5.7-6.1-4.9-7.8c0.4-1.2,0.4-1.2,1.6-2l0,0       c16.8-13.1,35.5-25.3,58.4-38l15.9,29.8l9-4.9L296.1,117.2z"/>
					<path class="st1" d="M211.5,212.8c4.1-4.5,8.6-6.1,18,0.8l6.1-8.2c-4.5-3.3-18.4-13.9-31.9,0.4l-9.4,12.3l-4.9-4.5l14.3-15.9       l-6.5-5.7l-13.1,13.9c-16.3,17.6-31.9,39.2-31.9,39.2l5.3,3.7l0,0l0,0l2.5,1.6c9,6.5,18.4,5.3,25.7-4.1l10.2-13.9l14.3,11       l-16.8,21.2c-3.7-2-6.9-2.9-10.6-2.5c-5.7,0.4-11,4.1-16.3,11l-5.7,7.4c-9-4.5-17.2-2.5-24.1,6.1c0,0-5.3,6.9-8.6,11.4       c-2-1.6-4.1-3.3-4.1-3.3l-4.1-2.5l-2.9,4.5c-2,4.1-4.5,8.2-6.5,12.3l-4.1-2l0,0c-1.6-0.8-2.5-1.6-3.3-3.3       c-0.8-2-0.4-4.1,0.4-6.1l38.8-58.4l-9-6.1L94.7,292l-0.4,0.4c-2,4.5-2.5,9.8-0.8,14.7c1.6,4.1,4.5,7.4,8.6,9.4l0,0l3.7,1.6       c-17.6,33.5-31.5,70.3-42.5,112.4L73,433c1.2-4.9,2.5-10.2,4.1-15.1l20,4.9h1.2c3.3,0,10.6,0,13.5-7.8v-0.4l17.6-53.9l0,0       l0.4-2l0.8,0.4l0,0l22.5,9.4l4.1-9.4l-22.9-9.4l-1.6-0.4l0,0c-3.3-0.8-9.8-0.8-13.1,7.4v0.4L102,411.7       c-0.4,0.4-0.8,0.8-3.7,1.2l-18.8-4.5c9.4-31.5,20.8-60.1,34.7-85.8l49.4,23.3l4.5-9.4l-49-22.9c1.2-2,2-4.1,3.3-5.7l6.9,5.7       l14.7-19.6c3.3-4.1,6.1-5.7,9.8-4.5l-13.5,17.2l8.2,6.1l25.7-33.1c3.7-4.5,6.5-6.9,9.4-7.4c0.8,0,2,0,3.3,0.4l-12.7,16.8       c-2.5,4.1-6.9,11.8,0.4,19.2c0.4,0.4,9,2.9,9,2.9c3.7-0.4,6.9-2.9,10.2-6.9l0.4,0.4l9.4-13.5l0.8-1.2l0,0l0,0l-4.5-3.3       l-4.1-2.5l-10.2,13.9c-1.6,2-2.9,2.9-3.7,3.3c-1.6-1.2-2.5-1.6,0.4-6.5l36-45.4l9.4,7.4l6.1-8.2L202.1,225L211.5,212.8z        M177.6,240.5c-4.5,5.7-8.2,4.9-11.8,2h-0.4c0,0,3.3-4.5,4.9-6.9l10.6-13.9l0,0l6.9,5.3L177.6,240.5z"/>
				</g>
				<path class="st1" d="M781.5,775l-10.2,10.2c0,0-16.8,17.2-20.4,21.2c-4.9-2.5-38.8-19.6-38.8-19.6s17.6,33.9,20,38.8      c-3.7,3.7-30.2,30.2-30.2,30.2s37.6-5.3,42.9-6.1c2.5,4.9,20,38.8,20,38.8s5.7-38,6.1-43.3c5.3-0.8,42.9-6.9,42.9-6.9      s-33.9-17.2-38.4-19.6C776.2,813,781.5,775,781.5,775z"/>
				<g>
					<path class="st1" d="M710,196.8l54.8,43.7l23.7-21.7l13.1,14.3l-6.5,6.1l-6.1-6.9l-7.4,6.9l7.4,8.2l0.8,0.8c0,0,5.3,2.5,7.8,2       c2.5-1.2,2.9-2,2.9-2l8.6-8.2l3.3-4.9c0,0-1.2-6.9-1.6-7.4c-0.4-0.4-0.4-0.8-0.4-0.8l-13.9-15.1l7.8-6.9       c12.3,11.4,23.7,23.7,34.3,36.4c-10.2-0.4-20.8,4.5-30.2,14.3c-7.4,6.1-7.8,17.2-1.6,29.8l9-4.5c-2.5-4.9-5.7-13.5-0.4-18       c11.8-12.7,24.5-15.1,34.7-6.9l2-2.9l5.7-4.5c-31.9-41.7-70.3-76.4-113.6-103l-5.3,8.6c20.4,12.7,40,27.4,58,43.7       c-2,2-4.9,4.5-7.8,6.9l-51.5-40l0,0l0,0l0,0c-4.9-3.7-10.6-2.9-15.1,2l0,0l-13.1,12.7l-0.8,0.8       C704.7,185.4,705.5,190.7,710,196.8L710,196.8z M715.7,186.6l12.7-12.3l0,0l1.2-1.6l2,1.6l0,0l48.6,37.6       c-7.4,6.5-14.3,12.7-16.3,15.1c-5.3-4.5-42.9-34.3-47.4-38C715.7,187.4,715.3,187,715.7,186.6z"/>
					<path class="st1" d="M938.4,366.4l6.5-7.8l-47-38l-4.9,6.1l-0.8-2.5l-6.9,2.9c1.6-6.5,2.5-12.7,2.9-15.1v-1.2l-0.4-1.2       c-7.8-20.4-17.2-35.5-28.2-44.1l-6.1,8.2c1.2,1.2,2.9,2.5,4.1,3.7l-20.8,24.5c-3.7-3.3-6.9-6.1-9.8-9l-6.9,7.4       c10.6,10.6,27,23.3,44.9,35.1l-23.7,9.8l4.1,9.4l46.6-19.6c2.9,6.5,5.7,13.1,8.6,19.6L851,367.6l2.5,9.8l50.7-13.5       c2.9,7.8,5.7,15.5,8.2,23.3c-10.6-4.5-24.9-3.7-37.6,3.3c-8.6,2.5-13.9,12.3-13.1,27l10.2-0.8c-0.4-4.5,0-14.7,6.5-16.8       c15.1-8.2,32.7-6.1,38.4,3.7c8.2,30.2,13.5,61.7,15.5,94.8c-4.1,0-10.6,0.4-18,0.8l-8.2-61.7l0,0c-1.2-7.4-5.7-11.4-12.3-11.4       h-0.4l-16.8,1.6h-0.4c-6.1,1.2-9.8,5.7-9.8,11.4v0.4l6.9,71.5l58.8-2l-2.9,26.6c0,0-5.7,30.6-6.1,32.7       c-0.8,1.2-6.5,7.4-10.2,12.3c-4.5-1.2-13.1-2.9-15.1-3.3c-1.6-1.6-5.7-6.9-7.8-9.4c0.4-3.3,2-10.6,2.5-12.7       c0.8-1.2,2.9-3.3,4.5-5.3c2.9,0.8,6.5,1.6,6.5,1.6l2.5-9.8l-12.7-2.9l-2,2.5l-8.2,9.8l-3.7,19.6l6.9,8.6l-6.1,2l-2.9,0.8       l-4.5,19.6l6.1,14.7l12.7,3.7l2.9-9.8c0,0-4.9-1.6-7.8-2c-0.8-2.5-2-5.3-2.9-7.4c0.4-2,2-7.8,2.5-11c2.5-0.8,6.9-2.5,9-3.3       l15.9,3.7l6.9,15.9c-1.2,4.9-4.9,20.4-5.3,22.1c-1.2,1.2-10.6,12.7-13.9,16.8L853,630.3l-3.3,9.8l60.1,19.2       c-13.1,39.2-31.9,75.6-55.6,108.7l-11.4-8.2c15.5-22.5,27-42.1,36.4-61.7l0,0c2.5-4.5,2-9.4-0.4-13.1l-1.6-1.6l-16.3-8.6       l-1.6-0.4c-4.1-0.8-9.4,0-14.3,6.5l-0.4,0.8c-4.9,9.4-11.4,22.1-20.8,33.5l8.2,6.5c9.8-12.3,16.8-24.9,21.7-34.7       c1.6-1.6,2.5-2,3.7-2l13.9,7.4c0,0.4,0,1.2-0.4,2l0,0c-9,18.8-20.4,38.4-35.5,60.5l-24.5-16.8l-5.7,8.2l44.1,30.6       c-4.1,5.3-8.6,11-12.7,16.3l7.8,6.5c34.7-41.7,60.9-89.5,78-141.8l1.6-4.5L918,652l-7.8-2.5l13.1-15.1c0,0,5.7-24.5,6.1-26.1       c0.4-1.6-0.4-3.3-0.4-3.3s-5.7-12.7-7.4-16.8c2.9-3.3,11.8-13.9,11.8-13.9l6.9-36.4l3.7-32.3c-3.3-59.7-15.1-112.4-38-165.1       L938.4,366.4z M873.9,328.8c-10.6-6.9-20.4-13.9-29-20.4l19.6-22.9c4.9,6.9,9.4,15.9,13.5,26.6       C877.1,317.4,875.9,323.9,873.9,328.8z M882.4,500.4c-0.8-7.8-5.7-58-6.1-61.7c0-0.4,0.4-0.8,1.6-1.2l15.9-1.2       c0.8,0,1.6,0,2,2.9l0,0l8.2,60.5C894.7,500,885.7,500.4,882.4,500.4z"/>
					<polygon class="st1" points="855.9,482.8 852.2,460.8 842,462.4 845.7,484.5      "/>
				</g>
			</g>
		</g>
	</g>
	<path class="st1" d="M506.1,166.6h-12.7c-180.6,0-326.9,146.3-326.9,326.9v12.7c0,180.6,146.3,326.9,326.9,326.9h12.7   C686.7,833,833,686.7,833,506.1v-12.7C833,312.9,686.7,166.6,506.1,166.6z"/>
	<path class="st2" d="M826.9,500c0,180.6-146.3,326.9-326.9,326.9l0,0c-180.6,0-326.9-146.3-326.9-326.9l0,0   c0-180.6,146.3-326.9,326.9-326.9l0,0C680.6,173.1,826.9,319.4,826.9,500L826.9,500z"/>
	<path class="st3" d="M500,500"/>
	<g>
		<g>
			<rect x="515.5" y="524.1" class="st1" width="62.9" height="10.2"/>
			<rect x="612.8" y="524.1" class="st1" width="60.1" height="10.2"/>
			<path class="st1" d="M593.6,520c-4.9,0-9.4,4.5-9.4,9.4c0,5.3,4.1,9.4,9.4,9.4c5.7,0,9.4-3.7,9.4-9.4     C603.4,524.1,599.3,520,593.6,520z"/>
		</g>
		<g>
			<rect x="325.5" y="524.1" class="st1" width="62.9" height="10.2"/>
			<rect x="422.8" y="524.1" class="st1" width="60.1" height="10.2"/>
			<path class="st1" d="M404,520c-4.9,0-9.4,4.5-9.4,9.4c0,5.3,4.1,9.4,9.4,9.4c5.7,0,9.4-3.7,9.4-9.4     C413.4,524.1,409.3,520,404,520z"/>
		</g>
	</g>
	<path class="st1" d="M625.4,734.9c1.6,2.9,2.5,4.5,4.5,7.4c2.9-1.6,4.5-2.5,7.4-4.5c-1.6-2.9-2.9-4.5-4.5-7.4   C629.9,732.5,628.3,733.3,625.4,734.9z"/>
	<path class="st1" d="M523.7,766.8c0.8,8.6,1.2,13.1,2,21.7c3.3-0.4,5.3-0.4,8.6-0.8c-1.2-8.6-1.6-13.1-2.9-21.7   C528.6,766.4,527,766.4,523.7,766.8z"/>
	<path class="st1" d="M267.5,661c2,3.3,3.3,4.9,5.3,8.2c7.4-4.9,10.6-7.4,18-12.3c-2-2.9-2.9-4.5-4.9-7.4   C278.5,654,274.9,656.1,267.5,661z"/>
	<path class="st1" d="M601.3,747.2c3.7,7.8,5.3,11.8,8.6,20c3.3-1.2,4.9-2,8.2-3.7c-3.7-7.8-5.7-11.8-9.4-19.6   C605.8,745.2,604.2,745.6,601.3,747.2z"/>
	<path class="st1" d="M550.3,762.7c0.8,3.3,1.2,4.9,1.6,8.6c3.3-0.8,4.9-0.8,8.2-1.6c-0.8-3.3-1.2-4.9-2-8.6   C554.8,761.9,553.5,762.3,550.3,762.7z"/>
	<path class="st1" d="M578.9,755.4c1.2,3.3,1.6,4.9,2.9,8.2c3.3-0.8,4.9-1.6,7.8-2.9c-1.2-3.3-1.6-4.9-2.9-8.2   C583.4,754.1,581.7,754.6,578.9,755.4z"/>
	<path class="st1" d="M660.2,727.6c1.2-1.2,2-1.6,3.3-2.9c-2.9-2-4.1-3.3-6.9-5.7C658.1,722.7,658.9,724.3,660.2,727.6z"/>
	<polygon class="st1" points="577.2,625 574.4,634.4 579.7,634.4  "/>
	<path class="st1" d="M703.9,664.3c6.9,4.9,10.6,7.8,17.6,12.7c2-3.3,3.3-4.5,5.3-7.8c-7.4-4.9-10.6-7.4-18-12.3   C706.7,659.8,705.9,661.4,703.9,664.3z"/>
	<polygon class="st4" points="494.7,647.9 494.7,643.4 491,643.4 492.2,638.9 500.4,638.9 501.6,643.4 498,643.4 498,647.9    512.3,647.9 512.3,643.4 508.6,643.4 499.6,616 492.6,616 483.7,643.4 480,643.4 480.4,647.9  "/>
	<polygon class="st4" points="533.5,643 529.8,643 529.8,636.5 533.9,633.2 543.3,643 539.6,643 539.6,647.5 553.9,647.5 553.9,643    550.3,643 538,630.3 550.3,620.5 553.9,620.5 553.9,616 539.6,616 539.6,620.5 543.3,620.5 529.8,631.2 529.8,620.5 533.5,620.5    533.5,616 519.2,616 519.2,620.5 522.9,620.5 522.9,643.4 519.2,643.4 519.2,647.5 533.5,647.5  "/>
	<polygon class="st4" points="433.8,644.2 433.8,619.7 428.1,616 405.2,616 405.2,620.5 408.9,620.5 408.9,643.4 405.2,643.4    405.2,647.9 428.1,647.9  "/>
	<polygon class="st4" points="455.1,643.4 451.4,643.4 451.4,634.4 462,634.4 462,643.4 458.3,643.4 458.3,647.9 472.6,647.9    472.6,643.4 468.9,643.4 468.9,620.5 472.6,620.5 472.6,616 458.3,616 458.3,620.5 462,620.5 462,629.5 451.4,629.5 451.4,620.5    455.1,620.5 455.1,616 440.8,616 440.8,620.5 444.4,620.5 444.4,643.4 440.8,643.4 440.8,647.9 455.1,647.9  "/>
	<polygon class="st4" points="355.8,641 363.9,656.5 366,639.7 382.7,636.9 367.2,628.7 370.1,612 358.2,624.6 342.7,616.4 350,632    339,643.8  "/>
	<path class="st4" d="M328.8,701.8c1.2,1.2,2,1.6,3.3,2.9c-0.8,0.8-1.2,0.8-1.6,1.6c1.6,1.6,2.5,2,4.1,3.7c1.6-2,2.5-2.9,4.1-4.9   c-7.4-6.5-11-9.8-18-17.2c-2,1.6-2.9,2.9-4.9,4.5c1.6,1.6,2.5,2.5,4.1,4.1c0.8-0.8,0.8-0.8,1.6-1.6c1.2,1.2,1.6,1.6,2.9,2.9   c-6.1,6.1-9,9.4-15.1,15.5c-0.8-0.8-1.2-1.2-2-2c-1.2,1.2-1.6,2-2.9,3.3c3.7,3.7,5.3,5.3,9,8.6c1.2-1.6,2-2,2.9-3.3   c-0.8-0.8-1.2-1.2-2-2C319.8,711.2,323.1,708.4,328.8,701.8z"/>
	<path class="st4" d="M313.7,686.3c1.2-1.2,2-1.6,3.3-2.9c-2.9-3.3-4.5-4.9-7.4-8.6c-1.2,1.2-2,1.6-3.3,2.9c0.8,0.8,1.2,1.2,2,2   c-6.5,5.7-9.8,8.6-16.3,14.3c-2.5-2.9-3.7-4.5-6.1-7.4c6.9-5.3,10.2-8.2,17.2-13.5c0.4,1.2,0.8,1.6,1.6,2.5c1.2-1.2,2-1.6,3.3-2.9   c-2.9-3.7-4.1-5.3-6.9-9c-1.6,0.8-2.5,1.2-3.7,2.5c0.4,1.2,0.8,1.6,1.6,2.5c-7.4,5.7-10.6,8.6-18,13.9c0,2.5,0.4,3.7,0.4,6.1   c3.3,3.7,4.5,5.7,7.8,9.4c2.5,0.4,3.7,0.8,5.7,1.2c6.5-6.1,10.2-9,16.8-15.1C312.5,685.1,312.9,685.5,313.7,686.3z"/>
	<path class="st4" d="M270.8,639.3c-2-4.1-2.9-5.7-4.9-9.8c3.3-1.2,4.5-2,7.8-3.7c1.6,3.3,2.5,4.9,4.1,8.2c-0.8,0.4-1.2,0.4-2,0.8   c1.2,2,1.6,3.3,2.9,5.3c0.8-0.8,1.2-1.2,2.5-1.6c0.4-2,0.4-3.3,0.8-5.7c-2.5-4.1-3.3-6.1-5.3-10.2c-2-0.8-3.3-1.6-5.3-2.9   c-3.7,1.6-5.7,2.5-9.4,4.1c-0.4,2.5-0.4,3.7-0.8,6.1c2,4.1,2.9,6.1,4.9,9.8c-3.3,1.6-4.5,2.5-7.8,4.1c-2-3.7-2.9-5.3-4.5-9   c0.8-0.4,1.2-0.4,2-0.8c-1.2-2.5-1.6-3.7-2.9-6.1c-1.2,0.4-1.6,0.8-2.9,1.2c-0.4,2.9-0.4,4.1-0.8,6.5c2,4.5,3.3,6.9,5.7,11.4   c2,1.2,3.3,1.6,6.1,3.3c3.7-2,5.3-2.9,9-4.9C270.4,643,270.4,641.8,270.8,639.3z"/>
	<path class="st4" d="M295.3,655.7c-2.5-3.7-3.7-5.7-6.1-9.4c-2-1.2-3.3-1.6-5.3-2.5c-7.8,4.5-11.8,6.9-20,11.8   c-0.4,2.5-0.4,3.7-0.4,6.1c2.5,4.5,3.7,6.5,6.5,10.6c2.5,1.2,3.3,1.6,5.7,2.5c7.8-5.3,11.4-8.2,19.2-13.5   C295.3,659.4,295.3,658.1,295.3,655.7z"/>
	<polygon class="st4" points="634.4,641 642.6,656.5 645,639.7 661.8,636.9 647.1,628.7 649.1,612 637.3,624.6 621.8,616.4    630.3,631.2 617.7,643.8  "/>
	<path class="st4" d="M313.3,317c-4.1,9.8-8.2,20.8-11.4,29.4c8.6-2,18-4.1,24.9-5.3C323.1,334.9,318.2,325.9,313.3,317z"/>
	<path class="st4" d="M504.5,242.6v17.6L576,292h8.6v5.3h-11L522.9,413c9.4-0.8,15.5,0,20.4,2.5c3.3,0,6.5-0.8,7.8-2.9   c0.8-1.2,0.8-2.5,0.4-3.7c-1.2-2-3.7-3.3-7.4-3.3l0.4-10.2c7.4,0,13.1,3.3,15.9,8.6c2.5,4.5,2,9.4-0.8,13.9   c-2.5,3.7-6.5,6.1-11.4,6.9c0,4.1-1.6,9-9,12.3l-4.1-9.4c2.5-1.2,3.3-2,2.9-4.5c-3.7-1.2-10.6-1.2-20,0l-0.4,0.4h-13.5v24.1   c58.4-3.3,105.4-55.6,105.4-119.3c0-65.8-49.4-119.3-110.3-119.3c-60.9,0-110.3,53.5-110.3,119.3c0,64.1,46.6,116.4,105.8,118.1   v-24.1h-13.5l-0.4-0.4c-11.8-1.6-17.6-0.8-20,0.4c-0.4,2.9,0.4,3.3,2.9,4.5l-4.1,9.4c-7.4-3.3-9-8.2-9-12.3   c-4.5-0.8-8.6-3.3-11-6.9c-2.9-4.1-3.3-9.4-1.2-13.9c2.9-5.3,8.6-8.2,16.3-8.6l0.4,10.2c-4.1,0.4-6.9,1.6-7.8,3.3   c-0.4,1.2-0.4,2.5,0.4,3.7c1.6,2,4.5,3.3,7.8,2.9c4.5-2.5,11.4-3.3,20.4-2.5L426,296.5h-11.8v-5.3h9.4l71.1-31.1v-17.6h-14.3   l17.2-20.8l2-2.5l19.2,23.3H504.5z"/>
	<path class="st4" d="M673.2,341.1c6.9,1.6,16.3,3.7,25.3,5.3c-3.7-9-8.2-19.6-11.8-29.4C681.8,325.5,676.9,334.9,673.2,341.1z"/>
	<polygon class="st4" points="575.6,643.4 571.9,643.4 573.1,638.9 581.3,638.9 582.5,643.4 578.9,643.4 578.9,647.9 593.6,647.9    593.6,643.4 589.9,643.4 580.9,616 574,616 565,643.4 561.3,643.4 561.3,647.9 575.6,647.9  "/>
	<path class="st4" d="M487.3,413h6.9l-0.4-116.9h-56.8C440.8,304.7,484.9,407.3,487.3,413z"/>
	<path class="st4" d="M504.5,741.1c69.9-1.2,129.1-30.6,149.5-71.1H504.5V741.1z"/>
	<path class="st4" d="M351.7,720.2c0.8,0.8,1.2,0.8,2,1.6c-2,2.9-2.9,4.1-4.9,6.9c-2.9-1.6-4.1-2.9-6.9-4.9c2-2.9,3.3-4.1,5.3-6.9   c0.8,0.8,1.2,0.8,2,1.6c0.8-1.6,1.2-2.5,2.5-3.7c-3.7-2.5-5.3-3.7-8.6-6.5c-1.2,1.2-1.6,2-2.9,3.3c0.8,0.4,1.2,0.8,2,1.6   c-5.3,6.9-8.2,10.2-13.5,17.2c-1.2-0.8-1.6-1.2-2.5-2c-1.2,1.2-1.6,2-2.9,3.3c4.1,2.9,5.7,4.5,9.8,7.4c0.8-1.6,1.2-2.5,2.5-3.7   c-0.8-0.4-1.6-0.8-2.5-1.6c2-2.9,3.3-4.1,5.3-6.9c2.9,2.5,4.1,3.3,6.9,5.3c-2,2.9-2.9,4.1-4.9,6.9c-0.8-0.4-1.6-0.8-2.5-1.6   c-0.8,1.6-1.2,2.5-2.5,3.7c3.7,2.9,5.7,4.1,9.8,6.9c0.8-1.6,1.6-2,2.5-3.7c-0.8-0.8-1.6-0.8-2.5-1.6c4.9-7.4,7.4-10.6,12.3-18   c1.2,0.8,1.6,1.2,2.5,1.6c0.8-1.2,1.6-2,2.9-3.7c-3.7-2.5-5.3-3.7-9-6.1C353.3,718.2,352.9,719,351.7,720.2z"/>
	<path class="st4" d="M504.5,296.1V413h6.9c2.5-5.7,47-108.3,50.7-116.9H504.5z"/>
	<path class="st4" d="M675.3,726.4c-9-6.1-13.5-9.4-22.1-15.9c-2,1.2-2.9,2-4.5,3.3c4.1,10.2,6.1,15.1,9.8,25.3   c-0.8,0.8-1.6,0.8-2.5,1.6c0.8,1.6,1.6,2.5,2.5,3.7c4.1-2.5,6.1-4.1,9.8-6.9c-0.8-1.2-1.2-2-2.5-3.3c-0.8,0.4-1.6,0.8-2.5,1.6   c-0.4-1.6-0.8-2.5-1.6-4.1c2-1.6,3.3-2.5,5.3-4.1c1.6,1.2,2,1.6,3.7,2.9c-1.2,0.8-1.6,1.2-2.5,2c1.2,1.2,1.6,2,2.9,3.3   c3.7-2.9,5.7-4.5,9.4-8.2c-1.2-1.2-1.6-2-2.9-3.3C676.5,725.1,676.1,725.5,675.3,726.4z"/>
	<path class="st4" d="M712.1,689.6c-6.5-5.7-10.2-8.6-16.8-13.9c0.4-1.2,0.8-1.6,1.6-2.5c-1.2-1.2-2-1.6-3.3-2.9   c-2.9,3.3-4.5,5.3-7.4,8.6c1.2,1.2,2,1.6,3.3,2.9c0.8-0.8,1.2-1.2,2-2c6.5,5.7,9.8,8.6,16.3,14.3c-0.8,1.2-1.2,1.6-2,2.5   c1.2,1.2,2,1.6,3.3,2.9c3.3-3.7,4.9-5.7,8.2-9.4c-1.2-1.2-2-1.6-3.3-2.9C713.3,688,712.9,688.8,712.1,689.6z"/>
	<path class="st4" d="M585.8,748.8c-6.1,2.5-9.4,3.3-15.9,5.3c0.4,1.6,0.8,2.5,1.2,4.1c0.8-0.4,1.2-0.4,2.5-0.8   c2.9,8.6,4.1,12.7,6.5,20.8c-1.2,0.4-1.6,0.4-2.9,0.8c0.4,1.6,0.8,2.5,1.2,4.1c4.5-1.6,6.9-2,11.4-3.7c-0.4-1.6-0.8-2.5-1.2-4.1   c-1.2,0.4-1.6,0.4-2.9,0.8c-1.2-3.3-1.6-4.9-2.9-8.2c3.7-1.2,5.3-2,9-3.3c1.2-2,1.6-2.9,2.9-4.5c-1.2-4.1-2-5.7-3.7-9.8   C589.1,750.1,587.8,749.6,585.8,748.8z"/>
	<path class="st4" d="M694.5,708.4c-6.1-6.1-9.4-9-15.5-15.1c1.2-0.8,1.6-1.6,2.9-2.9c0.8,0.8,0.8,1.2,1.6,1.6   c1.6-1.6,2.5-2.5,4.1-4.1c-2-2-2.9-2.9-4.9-4.5c-6.5,7.4-10.2,11-17.6,17.6c2,2,2.9,2.9,4.5,4.9c1.6-1.2,2.5-2,4.1-3.7   c-0.8-0.8-1.2-0.8-1.6-1.6c1.2-1.2,1.6-1.6,2.9-2.9c6.1,6.1,9,9.4,15.1,15.5c-0.8,0.8-1.2,1.2-2,2c1.2,1.2,1.6,2,2.9,3.3   c3.7-3.3,5.3-4.9,9-9.4c-1.2-1.2-2-1.6-3.3-2.9C695.7,707.2,695.3,707.6,694.5,708.4z"/>
	<path class="st4" d="M607.5,739.4c-3.3,1.6-5.3,2.5-9,4.1c-0.8,2-1.2,2.9-2.5,4.9c3.7,8.6,5.3,13.1,9,21.7c2.5,0.4,3.3,0.8,5.7,1.2   c4.1-1.6,6.1-2.5,10.2-4.5c1.2-2,1.6-3.3,2.5-5.3c-4.1-8.2-6.5-12.3-10.6-20.8C610.7,740.3,609.5,739.8,607.5,739.4z"/>
	<path class="st4" d="M649.1,746c-2-3.3-3.3-4.9-5.3-8.2c-0.8,0-1.2,0-2,0c0.4-0.8,0.4-1.2,0.8-2c-2.5-3.3-3.3-4.9-5.7-8.6   c-2.5-0.4-3.7-0.4-5.7-0.8c-5.7,3.7-8.6,5.3-14.7,8.6c0.8,1.2,1.2,2,2,3.7c0.8-0.4,1.6-0.8,2.5-1.2c4.1,7.8,6.1,11.4,10.2,19.2   c-0.8,0.4-1.2,0.8-2.5,1.2c0.8,1.2,1.2,2,2,3.7c4.5-2,6.5-3.3,10.6-5.7c-0.8-1.2-1.2-2-2-3.7c-0.8,0.8-1.2,1.2-2.5,1.6   c-2-2.9-2.9-4.5-4.5-7.4c2.9-1.6,4.5-2.9,7.4-4.5c1.6,2.9,2.9,4.5,4.5,7.4c-0.8,0.8-1.6,1.2-2.5,1.6c0.8,1.6,1.2,2,2,3.7   c4.1-2.5,6.1-3.7,10.2-6.5c-0.8-1.6-1.6-2-2.5-3.7C650.8,745.2,650,745.2,649.1,746z"/>
	<path class="st4" d="M705.9,653.6c-2.5,3.7-3.7,5.3-6.1,9c0,2,0,3.3,0,5.7c7.8,5.7,11.4,8.6,18.8,14.3c2-0.8,3.3-1.2,5.7-2   c2.9-4.1,4.1-6.1,6.5-10.2c0-2.5,0-3.7,0-6.1c-7.8-4.9-11.8-7.8-19.6-12.7C709.2,652.4,708,652.8,705.9,653.6z"/>
	<path class="st4" d="M752.1,632.4c-9.4-4.5-14.3-6.5-23.7-11c0.4-1.2,0.8-1.6,1.2-2.9c-1.6-0.4-2.5-0.8-4.1-1.6   c-2,4.5-3.3,6.5-5.3,11c1.2,0.8,2,1.2,3.7,2c0.4-1.2,0.8-1.6,1.2-2.9c5.3,2.9,8.2,4.1,13.5,6.9c-9,1.2-13.9,1.6-22.9,2   c-1.6,3.3-2.9,4.9-4.5,7.8c1.6,1.2,2,1.6,3.7,2.5c0.8-0.8,1.2-1.2,1.6-2.5c7.8,4.5,11.4,6.5,18.8,11c-0.8,1.2-0.8,1.6-1.6,2.9   c1.6,1.2,2,1.6,3.7,2.5c2.9-4.5,4.1-6.5,6.5-11.4c-1.2-0.8-2-1.2-3.7-2c-0.8,1.2-0.8,1.6-1.6,2.9c-5.3-2.9-7.8-4.5-12.7-8.6   c9.4-0.4,13.9-1.2,23.3-2.5C750.5,636.1,750.9,634.8,752.1,632.4z"/>
	<path class="st4" d="M493.9,741.1V670H345.6C366,710,424.4,739.4,493.9,741.1z"/>
	<path class="st4" d="M417.5,756.6c2,0.8,3.3,0.8,5.3,1.6c0.4-0.8,0.4-1.2,0.8-2c1.2,0.4,2,0.8,3.7,1.2c-2.5,8.2-3.7,12.7-6.1,20.8   c-1.2-0.4-1.6-0.4-2.9-0.8c-0.4,1.6-0.8,2.5-1.2,4.1c4.5,1.6,6.9,2,11.4,3.3c0.4-1.6,0.8-2.5,1.2-4.1c-1.2-0.4-1.6-0.4-2.9-0.8   c2-8.2,3.3-12.7,5.7-20.8c1.2,0.4,2,0.4,3.7,0.8c0,0.8,0,1.2-0.4,2c2,0.4,3.3,0.8,5.3,1.2c0.4-2.5,0.8-3.7,1.2-6.1   c-9.4-2.5-13.9-3.7-22.9-6.5C418.7,752.9,418.3,754.1,417.5,756.6z"/>
	<path class="st4" d="M461.2,764.8c0.8,0,1.2,0.4,2.5,0.4c-2,2.5-3.3,4.1-5.3,6.5c-1.2-3.3-1.6-4.5-2.9-7.8c0.8,0,1.2,0.4,2.5,0.4   c0.4-1.6,0.4-2.5,0.8-4.1c-4.1-0.8-6.1-1.2-10.2-2c-0.4,1.6-0.4,2.5-0.8,4.1c0.8,0,1.2,0,2.5,0.4c1.6,4.9,2.5,6.9,4.5,11.8   c-0.8,4.1-1.2,6.5-2,10.6c-1.2,0-1.6,0-2.9-0.4c-0.4,1.6-0.4,2.5-0.8,4.1c4.5,0.8,6.9,1.2,11.4,2c0.4-2,0.4-2.9,0.8-4.5   c-1.2,0-1.6-0.4-2.9-0.4c0.8-4.1,0.8-6.5,1.6-10.6c3.3-3.7,4.9-5.7,8.2-9.8c0.8,0.4,1.2,0.4,2.5,0.4c0-1.6,0.4-2.5,1.6-4.1   c-4.1-0.4-6.1-0.4-10.2-1.2C461.6,762.3,461.6,763.1,461.2,764.8z"/>
	<path class="st4" d="M403.6,749.6c0.8,0.4,1.6,0.4,2.5,0.8c-3.3,7.8-4.9,11.8-8.2,20c-1.2-0.4-1.6-0.8-2.9-1.2   c-0.8,1.6-0.8,2.5-1.6,4.1c4.5,1.6,6.5,2.5,11,4.1c0.8-1.6,1.2-2.5,1.6-4.1c-1.2-0.4-1.6-0.4-2.9-0.8c3.3-8.2,4.5-12.3,7.8-20.4   c0.8,0.4,1.6,0.4,2.5,0.8c0.4-1.6,0.8-2.5,1.6-3.7c-4.1-1.2-5.7-2-9.8-3.7C404.4,747.2,404.4,748,403.6,749.6z"/>
	<path class="st4" d="M568.6,781.5c-0.8-3.7-1.6-5.7-2.5-9.4c-0.8-0.4-1.2-0.4-2-0.8c0.4-0.8,0.8-0.8,1.2-1.6   c-0.8-4.1-1.2-6.1-2.5-10.2c-2-0.8-2.9-1.6-4.9-2.5c-6.5,1.6-9.8,2-16.3,3.3c0.4,1.6,0.4,2.5,0.8,4.1c0.8,0,1.2-0.4,2.5-0.4   c1.6,8.6,2.5,12.7,4.1,21.2c-1.2,0-1.6,0.4-2.9,0.4c0.4,1.6,0.4,2.5,0.8,4.1c4.5-0.8,6.9-1.2,11.4-2c-0.4-1.6-0.4-2.5-0.8-4.1   c-1.2,0-1.6,0-2.9,0.4c-0.4-3.7-0.8-5.3-1.6-8.6c3.3-0.4,4.9-0.8,8.2-1.6c0.8,3.7,1.2,5.3,2,8.6c-1.2,0.4-1.6,0.4-2.9,0.8   c0.4,1.6,0.4,2.5,0.8,4.1c4.5-1.2,6.9-1.6,11.4-2.5c-0.4-1.6-0.8-2.5-1.2-4.1C570.3,781.1,569.9,781.1,568.6,781.5z"/>
	<path class="st4" d="M396.2,750.9c0.8-2,1.2-2.9,2-4.9c-0.8-2-1.6-2.9-2.5-4.9c-3.7-1.6-5.3-2.9-9-4.5c-2,0.4-3.3,0.8-5.3,1.2   c-4.5,8.6-6.5,12.7-11,20.8c0.8,2,1.2,3.3,2.5,5.3c4.1,2,6.1,2.9,10.2,4.9c2.5-0.4,3.3-0.8,5.7-1.2c0.8-2,1.2-2.9,2-4.9   c-2-1.2-3.3-1.6-5.3-2.5c-0.4,1.6-0.8,2.5-1.6,4.1c-2.9-1.2-4.5-2-7.8-3.7c4.1-7.8,5.7-11.4,9.8-19.2c2.9,1.2,4.5,2,6.9,3.3   c-0.4,1.6-0.8,2.5-1.6,4.1C393.4,749.6,394.2,750.1,396.2,750.9z"/>
	<path class="st4" d="M532.7,761.5c-3.7,0.8-5.7,0.8-9.8,1.2c-1.6,1.2-2.5,2-4.1,3.7c0.4,9.4,0.8,13.9,1.6,23.3c2,1.6,2.9,2,4.9,3.3   c4.5-0.4,6.5-0.8,11-1.2c1.6-1.6,2.5-2.5,4.1-4.1c-1.2-9.4-2-13.9-3.3-23.3C535.5,763.1,534.7,762.7,532.7,761.5z"/>
	<path class="st4" d="M508.6,785.2c0,2,0,2.9,0,4.5c-3.3,0-4.9,0-8.6,0c0-8.6,0-13.1,0-21.7c3.3,0,4.9,0,8.2,0c0,2,0,2.9,0,4.5   c2-0.4,3.3-0.4,5.3-0.4c-0.4-2-0.4-3.3-0.4-5.3c-2-1.2-2.9-2-4.5-3.3c-3.7,0-5.7,0-9.8,0c-1.6,1.2-2.5,2-4.1,3.3   c0,9.4-0.4,13.9-0.4,23.3c1.6,1.6,2.5,2.5,4.5,3.7c4.5,0,6.5,0,11,0c2-1.6,2.9-2.5,4.9-3.7c-0.4-2-0.4-3.3-0.4-5.3   C511.8,785.2,511,785.2,508.6,785.2z"/>
	<path class="st1" d="M736.6,320.2c-4.5-4.5-10.2-6.9-16.3-6.9c-6.5,0-13.1,2.9-17.6,4.9c-1.2,0.8-2.5,1.6-3.7,2.9l-11-27.8   l-5.3,9.4l-25.3,45.8l56.8,12.3l-11.4-29.4c1.6-1.6,3.3-2.9,4.9-4.1c4.1-2,9-3.3,12.3-3.3c3.7,0,6.5,1.6,9.8,4.5   c1.2,1.2,3.3,4.5,4.5,15.9v232.1h-230V456.3c3.3,0,6.1-0.4,9.4-0.8l2.5,9l9.8-2.9l-2-7.8c4.9-1.2,10.2-2.9,14.7-4.5l11.4,18   l8.6-5.3l-10.6-16.8c4.5-2,9-4.9,13.5-7.8l4.5,6.9l8.6-5.7l-4.9-7.4c3.3-2.5,6.1-4.9,9-7.8l15.1,15.1l7.4-7.4l-15.5-15.5   c2.9-3.3,5.7-6.5,8.2-10.2l9.4,5.3l4.9-9l-9-4.9c2-3.7,4.1-7.8,6.1-11.4l18,8.2l4.1-9.4l-18.4-8.2c2-5.7,4.1-11.8,5.3-18l9.8,2   l2-9.8l-10.2-2.5c0.8-4.9,0.8-9.8,1.2-14.7h21.2v-10.2h-21.2c-0.4-4.9-0.8-9.4-1.2-13.9l7.4-0.8l-1.2-10.2L614,299   c-1.2-4.5-2.5-9-4.1-13.5l19.2-6.1l-3.3-9.8l-19.6,6.1c-2-4.5-4.1-8.6-6.5-13.1l4.5-2.5l-4.9-9l-4.9,2.9   c-3.3-4.9-7.4-9.8-11.4-14.3l12.7-12.7l-7.4-7.4l-12.7,12.7c-2-2-4.1-3.7-6.1-5.3l3.3-4.5l-8.2-5.7l-3.3,4.5   c-3.7-2.5-7.4-4.9-11.4-6.5l6.1-13.1l-9-4.5l-6.1,13.1c-4.1-1.6-8.6-3.3-13.1-4.5l1.6-5.3l-9.8-2.9l-2,6.1c-4.5-0.8-9-1.2-13.9-1.6   v-15.9h-10.2v15.9c-4.9,0-9.4,0.8-13.9,1.6l-2-6.1l-9.8,2.9l1.6,5.3c-4.5,1.2-8.6,2.9-13.1,4.5l-6.1-13.1l-9,4.5l6.1,13.1   c-3.7,2-7.4,4.1-11,6.5l-3.7-4.5l-8.2,6.1l3.3,4.1c-2,1.6-4.1,3.7-6.1,5.3l-11-13.1l-7.4,7.4l12.3,12.7c-4.1,4.5-7.8,9-11.4,14.3   l-4.9-2.9l-4.9,9l4.5,2.5c-2.5,4.1-4.5,8.6-6.5,13.1l-19.6-6.1l-3.3,9.8l19.2,6.1c-1.6,4.5-2.9,9-4.1,13.5l-7.8-1.6l-1.2,10.2   l7.4,0.8c-0.8,4.5-1.2,9-1.2,13.9h-21.2v10.2h21.2c0,4.9,0.4,9.8,1.2,14.7l-10.2,2.5l2,9.8l9.8-2c1.2,6.1,3.3,12.3,5.3,18   l-18.4,8.2l4.1,9.4l18-8.2c2,4.1,3.7,7.8,6.1,11.4l-9,4.9l4.9,9l9.4-5.3c2.5,3.7,5.3,7.4,8.6,10.6l-15.1,15.1l7.4,7.4l14.7-14.7   c2.9,2.5,5.7,5.3,8.6,7.4l-4.9,7.4l8.6,5.7l4.5-6.9c4.5,2.9,9,5.3,13.5,7.8l-9.8,16.8l9,5.3l10.6-17.6c4.9,1.6,9.8,3.3,14.7,4.5   l-2.5,7.8l9.8,2.9l2.5-9c3.3,0.4,6.1,0.8,9.4,0.8v120.1H265.5V342.3c0-7.8,2-12.7,4.1-14.3c3.3-3.3,6.5-4.9,10.2-4.9   c3.7,0,8.2,1.2,13.1,4.1c0,0,2.5,2.9,4.1,4.5l-11.4,28.6l57.2-12.3L312,292.8l-4.1,9.8l-7.4,18.8l-2.5-2.9   c-5.3-2.9-11.8-5.3-18.4-5.3c-6.1,0-11.8,2.5-16.8,7.4c-4.5,3.3-6.9,13.9-7.4,24.1v236.2v5.3h5.3h233.7v11.8h9.4v-0.4h0v-0.8v-11   h235.3h4.9v-4.9V342.7C743.5,334.1,742.3,324.7,736.6,320.2z M673.2,341.1c3.7-6.1,8.6-15.5,13.5-24.1c3.7,9.8,8.2,20.4,11.8,29.4   C689.6,344.7,680.2,342.7,673.2,341.1z M313.3,317c4.9,9,9.8,18,13.5,24.1c-6.9,1.2-16.3,3.3-24.9,5.3   C305.1,337.8,309.2,326.8,313.3,317z"/>
	<path class="st1" d="M494.3,413h-6.9c-2.5-5.7-46.6-108.3-50.3-116.9h56.8L494.3,413z"/>
	<path class="st1" d="M504.5,413V296.1h57.6c-3.7,8.6-48.2,111.1-50.7,116.9H504.5z"/>
	<path class="st1" d="M504.1,598.1H206.2c39.6,125.8,156.1,216.6,293.4,216.6S753.3,723.9,793,598.1H504.1z M621.8,616.4l15.5,8.2   l11.8-12.7l-2,16.8l14.7,8.2l-16.8,2.9l-2.5,16.8l-8.2-15.5l-16.8,2.9l12.7-12.7L621.8,616.4z M654,670   c-20.4,40.5-79.7,69.9-149.5,71.1V670H654z M561.3,643.4h3.7l9-27.4h6.9l9,27.4h3.7v4.5h-14.7v-4.5h3.7l-1.2-4.5h-8.2l-1.2,4.5h3.7   v4.5h-14.3L561.3,643.4z M519.2,643.4h3.7v-22.9h-3.7V616h14.3v4.5h-3.7v10.6l13.5-10.6h-3.7V616h14.3v4.5h-3.7l-12.3,9.8   l12.3,12.7h3.7v4.5h-14.3V643h3.7l-9.4-9.8l-4.1,3.3v6.5h3.7v4.5h-14.3L519.2,643.4z M483.7,643.4l9-27.4h6.9l9,27.4h3.7v4.5H498   v-4.5h3.7l-1.2-4.5h-8.2l-1.2,4.5h3.7v4.5h-14.3l-0.4-4.5H483.7z M440.8,643.4h3.7v-22.9h-3.7V616h14.3v4.5h-3.7v9H462v-9h-3.7V616   h14.3v4.5h-3.7v22.9h3.7v4.5h-14.3v-4.5h3.7v-9h-10.6v9h3.7v4.5h-14.3V643.4z M405.2,643.4h3.7v-22.9h-3.7V616h22.9l5.7,3.7v24.5   l-5.7,3.7h-22.9V643.4z M342.7,616.4l15.5,8.2l11.8-12.7l-2.9,16.8l15.5,8.2l-16.8,2.9l-2,16.8l-8.2-15.5l-16.8,2.9l11-11.8   L342.7,616.4z M254.8,647.1c-2.5-4.5-3.7-6.9-5.7-11.4c0.4-2.5,0.4-3.7,0.8-6.5c1.2-0.4,1.6-0.8,2.9-1.2c1.2,2.5,1.6,3.7,2.9,6.1   c-0.8,0.4-1.2,0.4-2,0.8c1.6,3.7,2.5,5.3,4.5,9c3.3-1.6,4.5-2.5,7.8-4.1c-2-3.7-2.9-5.7-4.9-9.8c0.4-2.5,0.4-3.7,0.8-6.1   c3.7-1.6,5.7-2.5,9.4-4.1c2,1.2,3.3,2,5.3,2.9c2,4.1,2.9,6.1,5.3,10.2c-0.4,2.5-0.4,3.7-0.8,5.7c-1.2,0.4-1.6,0.8-2.5,1.6   c-1.2-2-1.6-3.3-2.9-5.3c0.8-0.4,1.2-0.4,2-0.8c-1.6-3.3-2.5-4.9-4.1-8.2c-3.3,1.6-4.5,2.5-7.8,3.7c2,4.1,2.9,5.7,4.9,9.8   c-0.4,2.5-0.4,3.7-0.8,6.1c-3.7,2-5.3,2.9-9,4.9C258.1,648.7,256.9,648.3,254.8,647.1z M270,672.4c-2.9-4.1-4.1-6.1-6.5-10.6   c0-2.5,0-3.7,0.4-6.1c8.2-4.9,12.3-7.4,20-11.8c2,0.8,3.3,1.2,5.3,2.5c2.5,3.7,3.7,5.7,6.1,9.4c0,2.5,0,3.7-0.4,5.7   c-7.8,5.3-11.4,8.2-19.2,13.5C273.2,674.1,272.4,673.7,270,672.4z M289.2,698.2c-3.3-3.7-4.5-5.7-7.8-9.4c0-2.5-0.4-3.7-0.4-6.1   c7.4-5.3,10.6-8.2,18-13.9c-0.8-0.8-1.2-1.2-1.6-2.5c1.2-1.2,2-1.6,3.7-2.5c2.9,3.7,4.1,5.3,6.9,9c-1.2,1.2-2,1.6-3.3,2.9   c-0.8-0.8-1.2-1.2-1.6-2.5c-6.9,5.3-10.2,8.2-17.2,13.5c2.5,2.9,3.7,4.5,6.1,7.4c6.5-5.7,9.8-8.6,16.3-14.3c-0.8-0.8-1.2-1.2-2-2   c1.2-1.2,2-1.6,3.3-2.9c2.9,3.7,4.5,5.3,7.4,8.6c-1.2,1.2-2,1.6-3.3,2.9c-0.8-0.8-1.2-1.2-2-2c-6.5,6.1-10.2,9-16.8,15.1   C292.8,699,291.6,698.6,289.2,698.2z M313.3,723.1c-3.7-3.3-5.3-4.9-9-8.6c1.2-1.2,1.6-2,2.9-3.3c0.8,0.8,1.2,1.2,2,2   c6.1-6.1,9-9.4,15.1-15.5c-1.2-1.2-1.6-1.6-2.9-2.9c-0.8,0.8-0.8,0.8-1.6,1.6c-1.6-1.6-2.5-2.5-4.1-4.1c2-1.6,2.9-2.9,4.9-4.5   c6.9,7.4,10.6,10.6,18,17.2c-1.6,2-2.5,2.9-4.1,4.9c-1.6-1.6-2.5-2-4.1-3.7c0.4-0.8,0.8-0.8,1.6-1.6c-1.2-1.2-2-1.6-3.3-2.9   c-5.7,6.5-9,9.4-14.7,15.9c0.8,0.8,1.2,1.2,2,2C315.3,721,314.5,721.5,313.3,723.1z M360.3,726.4c-0.8-0.4-1.2-0.8-2.5-1.6   c-4.9,7.4-7.4,10.6-12.3,18c0.8,0.8,1.6,0.8,2.5,1.6c-0.8,1.6-1.6,2-2.5,3.7c-4.1-2.9-6.1-4.1-9.8-6.9c1.2-1.2,1.6-2,2.5-3.7   c0.8,0.8,1.6,1.2,2.5,1.6c2-2.9,2.9-4.1,4.9-6.9c-2.9-2-4.1-2.9-6.9-5.3c-2,2.9-3.3,4.1-5.3,6.9c0.8,0.8,1.6,1.2,2.5,1.6   c-1.2,1.2-1.6,2-2.5,3.7c-4.1-2.9-5.7-4.5-9.8-7.4c1.2-1.2,1.6-2,2.9-3.3c0.8,0.8,1.2,1.2,2.5,2c5.3-6.9,8.2-10.2,13.5-17.2   c-0.8-0.8-1.2-1.2-2-1.6c1.2-1.2,1.6-2,2.9-3.3c3.3,2.9,4.9,4.1,8.6,6.5c-1.2,1.2-1.6,2-2.5,3.7c-0.8-0.8-1.2-0.8-2-1.6   c-2,2.9-3.3,4.1-5.3,6.9c2.9,2,4.1,3.3,6.9,4.9c2-2.9,2.9-4.1,4.9-6.9c-0.8-0.8-1.2-0.8-2-1.6c1.2-1.2,1.6-2,2.5-3.7   c3.7,2.5,5.3,3.7,9,6.1C361.9,724.3,361.1,725.1,360.3,726.4z M386,741.5c-4.1,7.8-5.7,11.4-9.8,19.2c3.3,1.6,4.9,2.5,7.8,3.7   c0.8-1.6,1.2-2.5,1.6-4.1c2,0.8,3.3,1.2,5.3,2.5c-0.8,2-1.2,2.9-2,4.9c-2.5,0.4-3.3,0.8-5.7,1.2c-4.1-2-6.1-2.9-10.2-4.9   c-1.2-2-1.6-3.3-2.5-5.3c4.5-8.2,6.5-12.3,11-20.8c2-0.4,3.3-0.8,5.3-1.2c3.7,1.6,5.3,2.9,9,4.5c0.8,2,1.6,2.9,2.5,4.9   c-0.8,2-1.2,2.9-2,4.9c-2-0.8-2.9-1.2-4.9-2c0.8-1.6,1.2-2.5,1.6-4.1C390.5,743.5,388.9,742.7,386,741.5z M413.4,752.9   c-0.8-0.4-1.6-0.4-2.5-0.8c-3.3,8.2-4.5,12.3-7.8,20.4c1.2,0.4,1.6,0.4,2.9,0.8c-0.4,1.6-0.8,2.5-1.6,4.1c-4.5-1.6-6.5-2.5-11-4.1   c0.8-1.6,0.8-2.5,1.6-4.1c1.2,0.4,1.6,0.8,2.9,1.2c3.3-8.2,4.9-12.3,8.2-20c-0.8-0.4-1.6-0.4-2.5-0.8c0.8-1.6,0.8-2.5,1.6-4.1   c4.1,1.6,5.7,2.5,9.8,3.7C414.2,750.5,413.8,751.3,413.4,752.9z M441.2,763.1c-2-0.4-3.3-0.8-5.3-1.2c0.4-0.8,0.4-1.2,0.4-2   c-1.6-0.4-2.5-0.4-3.7-0.8c-2.5,8.2-3.7,12.7-5.7,20.8c1.2,0.4,1.6,0.4,2.9,0.8c-0.4,1.6-0.8,2.5-1.2,4.1   c-4.5-1.2-6.9-1.6-11.4-3.3c0.4-1.6,0.8-2.5,1.2-4.1c1.2,0.4,1.6,0.4,2.9,0.8c2.5-8.2,3.7-12.7,6.1-20.8c-1.6-0.4-2.5-0.8-3.7-1.2   c-0.4,0.8-0.4,1.2-0.8,2c-2-0.8-3.3-0.8-5.3-1.6c0.8-2.5,1.2-3.7,2-6.1c9,2.9,13.5,4.1,22.9,6.5C442,759.5,441.6,760.7,441.2,763.1   z M470.6,766c-1.2,0-1.6,0-2.5-0.4c-3.3,4.1-4.9,6.1-8.2,9.8c-0.8,4.1-0.8,6.5-1.6,10.6c1.2,0,1.6,0.4,2.9,0.4   c-0.4,1.6-0.4,2.5-0.8,4.5c-4.5-0.8-6.9-1.2-11.4-2c0.4-1.6,0.4-2.5,0.8-4.1c1.2,0.4,1.6,0.4,2.9,0.4c0.8-4.1,1.2-6.5,2-10.6   c-2-4.9-2.9-6.9-4.5-11.8c-1.2-0.4-1.6-0.4-2.5-0.4c0.4-1.6,0.4-2.5,0.8-4.1c4.1,0.8,6.1,1.2,10.2,2c-0.4,1.6-0.4,2.5-0.8,4.1   c-1.2,0-1.6-0.4-2.5-0.4c1.2,3.3,1.6,4.5,2.9,7.8c2-2.5,3.3-4.1,5.3-6.5c-1.2,0-1.6-0.4-2.5-0.4c0.4-1.6,0.4-2.5,0.8-4.1   c4.1,0.8,6.1,0.8,10.2,1.2C471,763.5,470.6,764.4,470.6,766z M493.9,741.1C424.4,739.4,366,710,345.6,670h148.3V741.1z    M509.8,793.8c-4.5,0-6.5,0-11,0c-2-1.2-2.9-2-4.5-3.7c0-9.4,0.4-13.9,0.4-23.3c1.6-1.2,2.5-2,4.1-3.3c4.1,0,6.1,0,9.8,0   c1.6,1.2,2.5,2,4.5,3.3c0,2,0,3.3,0.4,5.3c-2,0-3.3,0-5.3,0.4c0-1.6,0-2.5,0-4.5c-3.3,0-4.9,0-8.2,0c0,8.6,0,13.1,0,21.7   c3.7,0,5.3,0,8.6,0c0-1.6,0-2.5,0-4.5c2.5,0,3.3,0,5.7-0.4c0,2,0,3.3,0.4,5.3C512.7,791.3,511.8,792.1,509.8,793.8z M536.4,791.7   c-4.5,0.4-6.5,0.8-11,1.2c-2-1.2-2.9-1.6-4.9-3.3c-0.8-9.4-1.2-13.9-1.6-23.3c1.6-1.6,2.5-2.5,4.1-3.7c4.1-0.4,6.1-0.4,9.8-1.2   c2,1.2,2.9,1.6,4.5,2.9c1.2,9.4,2,13.9,3.3,23.3C538.8,789.3,538,790.1,536.4,791.7z M561.3,787.2c-0.4-1.6-0.4-2.5-0.8-4.1   c1.2-0.4,1.6-0.4,2.9-0.8c-0.8-3.3-1.2-4.9-2-8.6c-3.3,0.8-4.9,1.2-8.2,1.6c0.8,3.3,1.2,4.9,1.6,8.6c1.2-0.4,1.6-0.4,2.9-0.4   c0.4,1.6,0.4,2.5,0.8,4.1c-4.5,0.8-6.9,1.2-11.4,2c-0.4-1.6-0.4-2.5-0.8-4.1c1.2,0,1.6-0.4,2.9-0.4c-1.6-8.6-2.5-12.7-4.1-21.2   c-1.2,0-1.6,0.4-2.5,0.4c-0.4-1.6-0.4-2.5-0.8-4.1c6.5-1.2,9.8-1.6,16.3-3.3c2,0.8,2.9,1.6,4.9,2.5c1.2,4.1,1.6,6.1,2.5,10.2   c-0.4,0.8-0.8,0.8-1.2,1.6c0.8,0.4,1.2,0.4,2,0.8c0.8,3.7,1.6,5.7,2.5,9.4c1.2-0.4,1.6-0.4,2.9-0.8c0.4,1.6,0.8,2.5,1.2,4.1   C568.2,785.6,565.8,786,561.3,787.2z M591.9,764.8c-3.7,1.2-5.3,2-9,3.3c1.2,3.3,1.6,4.9,2.9,8.2c1.2-0.4,1.6-0.4,2.9-0.8   c0.4,1.6,0.8,2.5,1.2,4.1c-4.5,1.6-6.9,2-11.4,3.7c-0.4-1.6-0.8-2.5-1.2-4.1c1.2-0.4,1.6-0.4,2.9-0.8c-2.5-8.2-3.7-12.3-6.5-20.8   c-1.2,0.4-1.6,0.4-2.5,0.8c-0.4-1.6-0.8-2.5-1.2-4.1c6.5-2,9.8-2.9,15.9-5.3c2,0.8,3.3,1.2,5.3,1.6c1.6,4.1,2.5,5.7,3.7,9.8   C593.6,761.9,593.2,762.7,591.9,764.8z M620.9,766.8c-4.1,2-6.1,2.9-10.2,4.5c-2.5-0.4-3.3-0.8-5.7-1.2c-3.7-8.6-5.3-13.1-9-21.7   c1.2-2,1.6-2.9,2.5-4.9c3.7-1.6,5.7-2.5,9-4.1c2,0.4,3.3,0.8,5.3,1.2c4.1,8.6,6.5,12.7,10.6,20.8   C622.6,763.5,622.2,764.8,620.9,766.8z M643.8,754.6c-0.8-1.6-1.2-2-2-3.7c0.8-0.4,1.6-0.8,2.5-1.6c-1.6-2.9-2.9-4.5-4.5-7.4   c-2.9,1.6-4.5,2.9-7.4,4.5c1.6,2.9,2.5,4.5,4.5,7.4c1.2-0.4,1.6-0.8,2.5-1.6c0.8,1.6,1.2,2.5,2,3.7c-4.1,2.5-6.1,3.7-10.6,5.7   c-0.8-1.6-1.2-2.5-2-3.7c1.2-0.4,1.6-0.8,2.5-1.2c-4.1-7.8-6.1-11.4-10.2-19.2c-0.8,0.4-1.6,0.8-2.5,1.2c-0.8-1.6-1.2-2.5-2-3.7   c6.1-3.3,9-4.9,14.7-8.6c2,0.4,3.3,0.4,5.7,0.8c2.5,3.7,3.3,5.3,5.7,8.6c-0.4,0.8-0.4,1.2-0.8,2c0.8,0,1.2,0,2,0   c2,3.3,3.3,4.9,5.3,8.2c0.8-0.8,1.6-0.8,2.5-1.6c0.8,1.6,1.6,2,2.5,3.7C650,750.9,647.9,752.1,643.8,754.6z M671.2,735.8   c-1.2-1.2-1.6-2-2.9-3.3c0.8-0.8,1.2-1.2,2.5-2c-1.6-1.2-2-1.6-3.7-2.9c-2,1.6-3.3,2.5-5.3,4.1c0.8,1.6,1.2,2.5,1.6,4.1   c0.8-0.8,1.6-1.2,2.5-1.6c1.2,1.2,1.6,2,2.5,3.3c-3.7,2.9-5.7,4.5-9.8,6.9c-0.8-1.2-1.6-2-2.5-3.7c0.8-0.8,1.6-0.8,2.5-1.6   c-3.7-10.2-5.7-15.1-9.8-25.3c1.6-1.2,2.5-2,4.5-3.3c8.6,6.5,13.1,9.8,22.1,15.9c0.8-0.8,1.2-1.2,2.5-2c1.2,1.2,1.6,2,2.9,3.3   C676.9,731.3,674.9,732.9,671.2,735.8z M690.8,718.6c-1.2-1.2-1.6-2-2.9-3.3c0.8-0.8,1.2-1.2,2-2c-6.1-6.1-9-9.4-15.1-15.5   c-1.2,1.2-1.6,1.6-2.9,2.9c0.4,0.8,0.8,0.8,1.6,1.6c-1.6,1.6-2.5,2.5-4.1,3.7c-1.6-2-2.5-2.9-4.5-4.9c7.4-6.5,11-10.2,17.6-17.6   c2,1.6,2.9,2.5,4.9,4.5c-1.6,1.6-2.5,2.5-4.1,4.1c-0.8-0.4-0.8-0.8-1.6-1.6c-1.2,1.2-1.6,2-2.9,2.9c6.1,6.1,9.4,9,15.5,15.1   c0.8-0.8,1.2-1.2,2-2c1.2,1.2,2,1.6,3.3,2.9C696.1,713.7,694.5,715.3,690.8,718.6z M709.2,699.4c-1.2-1.2-2-1.6-3.3-2.9   c0.8-0.8,1.2-1.2,2-2.5c-6.5-5.7-9.8-8.6-16.3-14.3c-0.8,0.8-1.2,1.2-2,2c-1.2-1.2-2-1.6-3.3-2.9c2.9-3.3,4.5-5.3,7.4-8.6   c1.2,1.2,2,1.6,3.3,2.9c-0.8,0.8-1.2,1.2-1.6,2.5c6.5,5.3,10.2,8.2,16.8,13.9c0.8-0.8,1.2-1.6,2-2.5c1.2,1.2,2,1.6,3.3,2.9   C714.1,693.7,712.5,695.7,709.2,699.4z M730.9,670.4c-2.5,4.1-3.7,6.1-6.5,10.2c-2.5,0.8-3.7,1.2-5.7,2c-7.4-5.7-11-8.6-18.8-14.3   c0-2.5,0-3.7,0-5.7c2.5-3.7,3.7-5.3,6.1-9c2-0.8,3.3-1.2,5.3-2c7.8,4.9,11.8,7.8,19.6,12.7C730.9,666.7,730.9,667.9,730.9,670.4z    M738.6,649.5c0.8-1.2,0.8-1.6,1.6-2.9c1.6,0.8,2.5,1.2,3.7,2c-2.5,4.9-3.7,6.9-6.5,11.4c-1.6-0.8-2-1.2-3.7-2.5   c0.8-1.2,0.8-1.6,1.6-2.9c-7.4-4.5-11-6.5-18.8-11c-0.4,1.2-0.8,1.6-1.6,2.5c-1.6-0.8-2-1.2-3.7-2.5c1.6-2.9,2.9-4.5,4.5-7.8   c9-0.4,13.9-0.8,22.9-2c-5.3-2.9-8.2-4.1-13.5-6.9c-0.4,1.2-0.8,1.6-1.2,2.9c-1.6-0.8-2.5-1.2-3.7-2c2-4.5,3.3-6.5,5.3-11   c1.6,0.8,2.5,1.2,4.1,1.6c-0.4,1.2-0.8,1.6-1.2,2.9c9.4,4.5,14.3,6.5,23.7,11c-1.2,2.5-1.6,3.7-2.9,6.1c-9.4,1.2-13.9,2-23.3,2.5   C730.9,645,733.3,646.7,738.6,649.5z"/>
	<rect x="415.8" y="620.5" class="st1" width="10.6" height="22.9"/>
	<ellipse class="st5" cx="499" cy="329.4" rx="112.8" ry="122.9"/>
	<polygon class="st1" points="495.9,625 493.5,634.4 498.8,634.4  "/>
	<path class="st2" d="M583.8,298.7v-5.3h-8.6l0,0l-71.1-30.7v-17.8h14.4l-19.2-23l-1.9,2.4l-17.3,20.6h14.4v17.8l-71.1,31.2l0,0   h-9.6v5.3h12l49.5,115.2c-9.1-1-15.8,0-20.2,2.4c-3.4,0.5-6.2-1-7.7-2.9c-1-1.4-1-2.4-0.5-3.8c1-1.4,3.8-2.9,7.7-3.4l-0.5-10.1   c-7.7,0.5-13.4,3.4-16.3,8.6c-1.9,4.3-1.4,9.6,1.4,13.9c2.4,3.8,6.7,6.2,11,6.7c0,3.8,1.4,9.1,9.1,12l3.8-9.6   c-2.4-1.4-3.4-1.4-2.9-4.3c2.4-1.4,8.2-1.9,20.2-0.5l0.5,0.5h13.4v28.3h10.1V424h13.4l0.5-0.5c9.6-1.4,16.3-1.4,20.2,0   c0.5,2.4-0.5,3.4-2.9,4.3l3.8,9.6c7.2-3.4,9.1-8.2,9.1-12c4.8-1,9.1-3.4,11.5-6.7c2.9-4.3,3.4-9.6,1-13.9   c-2.9-5.3-8.6-8.6-15.8-8.6l-0.5,10.1c3.8,0,6.2,1.4,7.2,3.4c0.5,1.4,0.5,2.4-0.5,3.8c-1.4,1.9-4.3,2.9-7.7,2.9   c-4.8-2.4-11-3.4-20.2-2.4l50.4-115.2C573.8,298.7,583.8,298.7,583.8,298.7z M498.9,230.5L498.9,230.5L498.9,230.5L498.9,230.5z    M487.3,415.8c-2.4-5.8-46.6-108-49.9-116.7l0,0h56.7v116.7H487.3z M561.8,299.2c-3.8,8.6-48,110.9-50.4,116.7h-6.7V298.7   L561.8,299.2C561.8,298.7,561.8,299.2,561.8,299.2z"/>
</g>
</svg>